<svg width="19" height="19" viewBox="0 0 19 19" fill="none" xmlns="http://www.w3.org/2000/svg">
    <path d="M9.50164 18.9999C8.18771 18.9999 6.95267 18.7506 5.79653 18.2519C4.64039 17.7533 3.63471 17.0765 2.77948 16.2217C1.92426 15.3668 1.2472 14.3616 0.748323 13.206C0.249441 12.0503 0 10.8156 0 9.50164C0 8.18771 0.249374 6.95267 0.748122 5.79653C1.24687 4.64039 1.92374 3.63471 2.77874 2.77948C3.63374 1.92426 4.63915 1.24721 5.79498 0.748323C6.95081 0.249441 8.1858 0 9.49996 0C10.5534 0 11.5501 0.158333 12.49 0.475C13.43 0.791667 14.2923 1.23333 15.0769 1.8L13.9923 2.90959C13.3461 2.46471 12.6462 2.11856 11.8925 1.87112C11.1388 1.62368 10.3413 1.49996 9.49996 1.49996C7.2833 1.49996 5.3958 2.27913 3.83746 3.83746C2.27913 5.3958 1.49996 7.2833 1.49996 9.49996C1.49996 11.7166 2.27913 13.6041 3.83746 15.1625C5.3958 16.7208 7.2833 17.5 9.49996 17.5C11.7166 17.5 13.6041 16.7208 15.1625 15.1625C16.7208 13.6041 17.5 11.7166 17.5 9.49996C17.5 9.14868 17.4769 8.80126 17.4307 8.45772C17.3846 8.11417 17.3153 7.78017 17.223 7.45571L18.4345 6.23459C18.6179 6.74869 18.7579 7.27755 18.8547 7.82116C18.9515 8.36477 18.9999 8.92437 18.9999 9.49996C18.9999 10.8141 18.7506 12.0491 18.2519 13.2049C17.7533 14.3608 17.0765 15.3662 16.2217 16.2212C15.3668 17.0762 14.3616 17.7531 13.206 18.2518C12.0503 18.7506 10.8156 18.9999 9.50164 18.9999ZM8.08073 13.7538L4.17691 9.84996L5.23073 8.79614L8.08073 11.6461L17.9461 1.76538L18.9999 2.8192L8.08073 13.7538Z" fill="white"/>
</svg>
