<svg width="13" height="14" viewBox="0 0 13 14" fill="none" xmlns="http://www.w3.org/2000/svg">
    <g clip-path="url(#clip0_222_12432)">
        <path d="M9.95859 2.29111C9.2914 1.62393 8.20859 1.62393 7.5414 2.29111L2.51015 7.32236C1.35898 8.47353 1.35898 10.3384 2.51015 11.4896C3.66132 12.6407 5.52617 12.6407 6.67734 11.4896L10.8336 7.3333C11.1316 7.03525 11.6184 7.03525 11.9164 7.3333C12.2144 7.63135 12.2144 8.11807 11.9164 8.41611L7.76015 12.5724C6.01015 14.3224 3.17734 14.3224 1.42734 12.5724C-0.322662 10.8224 -0.322662 7.98955 1.42734 6.23955L6.45859 1.2083C7.7246 -0.0577149 9.77538 -0.0577149 11.0414 1.2083C12.3074 2.47432 12.3074 4.5251 11.0414 5.79111L6.2289 10.6036C5.44687 11.3856 4.17812 11.3856 3.39609 10.6036C2.61406 9.82158 2.61406 8.55283 3.39609 7.7708L7.33359 3.8333C7.63163 3.53525 8.11835 3.53525 8.4164 3.8333C8.71445 4.13135 8.71445 4.61807 8.4164 4.91611L4.4789 8.85361C4.2957 9.03682 4.2957 9.3376 4.4789 9.5208C4.6621 9.704 4.96288 9.704 5.14609 9.5208L9.95859 4.7083C10.6258 4.04111 10.6258 2.9583 9.95859 2.29111Z" fill="white"/>
    </g>
    <defs>
        <clipPath id="clip0_222_12432">
            <path d="M0 0H12.25V14H0V0Z" fill="white"/>
        </clipPath>
    </defs>
</svg>
