<svg width="24" height="24" viewBox="0 0 24 24" fill="none" xmlns="http://www.w3.org/2000/svg">
    <path d="M16.6983 21.996H5.09828C4.68867 21.9977 4.28288 21.9172 3.90498 21.7591C3.52707 21.6011 3.18474 21.3688 2.89828 21.076C2.60971 20.7854 2.3816 20.4404 2.22712 20.0611C2.07264 19.6818 1.99487 19.2756 1.99828 18.866V7.27603C1.99317 6.86831 2.07123 6.46383 2.22769 6.08729C2.38416 5.71075 2.61573 5.37006 2.90828 5.08603C3.19293 4.79743 3.53311 4.56951 3.90828 4.41603C4.28836 4.25709 4.69631 4.1755 5.10828 4.17603H9.54828C9.74719 4.17603 9.93796 4.25505 10.0786 4.3957C10.2193 4.53635 10.2983 4.72712 10.2983 4.92603C10.2983 5.12494 10.2193 5.31571 10.0786 5.45636C9.93796 5.59701 9.74719 5.67603 9.54828 5.67603H5.10828C4.89319 5.68188 4.68046 5.7224 4.47828 5.79603C4.18362 5.9204 3.93237 6.12922 3.7562 6.39615C3.58002 6.66309 3.4868 6.9762 3.48828 7.29603V18.886C3.48578 19.1009 3.52604 19.3141 3.60673 19.5132C3.68742 19.7124 3.80693 19.8935 3.95828 20.046C4.10961 20.1962 4.2891 20.315 4.48644 20.3956C4.68378 20.4763 4.8951 20.5172 5.10828 20.516H16.7083C16.9213 20.516 17.1313 20.476 17.3283 20.396C17.5243 20.3173 17.7015 20.198 17.8483 20.046C18.0003 19.8993 18.1195 19.7221 18.1983 19.526C18.2867 19.3279 18.331 19.113 18.3283 18.896V14.456C18.3283 14.2571 18.4073 14.0663 18.548 13.9257C18.6886 13.785 18.8794 13.706 19.0783 13.706C19.2772 13.706 19.468 13.785 19.6086 13.9257C19.7493 14.0663 19.8283 14.2571 19.8283 14.456V18.926C19.83 19.3356 19.7494 19.7414 19.5914 20.1193C19.4334 20.4972 19.2011 20.8396 18.9083 21.126C18.6212 21.4142 18.2818 21.645 17.9083 21.806C17.5213 21.946 17.1103 22.011 16.6983 21.996Z" fill="white"/>
    <path d="M21.8084 5.456C21.7065 5.19852 21.5495 4.96644 21.3484 4.776L19.1984 2.626C19.008 2.42495 18.7759 2.26795 18.5184 2.166C18.1315 2.00298 17.7046 1.95966 17.2929 2.04166C16.8811 2.12366 16.5034 2.3272 16.2084 2.626L14.4984 4.336V4.386L6.75844 12.116C6.36768 12.5095 6.14839 13.0415 6.14844 13.596V15.766C6.15107 16.3248 6.37421 16.86 6.76935 17.2551C7.16448 17.6502 7.69964 17.8734 8.25844 17.876H10.4284C10.704 17.8764 10.9768 17.8217 11.231 17.7152C11.4851 17.6088 11.7154 17.4526 11.9084 17.256L19.6484 9.516L21.3684 7.796C21.5704 7.606 21.7284 7.374 21.8284 7.116C21.9429 6.85954 22.002 6.58185 22.002 6.301C22.002 6.02016 21.9429 5.74247 21.8284 5.486L21.8084 5.456ZM20.4284 6.506C20.396 6.58156 20.3483 6.64964 20.2884 6.706L19.0684 7.926L16.0684 4.926L17.2984 3.696C17.4166 3.58174 17.5741 3.51729 17.7384 3.516C17.8177 3.51732 17.8958 3.53432 17.9684 3.566C18.0458 3.59867 18.1124 3.64534 18.1684 3.706L20.3284 5.856C20.3829 5.91474 20.4269 5.98239 20.4584 6.056C20.4733 6.13195 20.4733 6.21005 20.4584 6.286C20.4622 6.36056 20.452 6.43518 20.4284 6.506Z" fill="white"/>
</svg>
