<svg width="24" height="24" viewBox="0 0 24 24" fill="none" xmlns="http://www.w3.org/2000/svg">
    <path opacity="0.987" fill-rule="evenodd" clip-rule="evenodd" d="M10.8135 1.59161C11.901 1.47011 12.5445 1.47011 13.713 1.59161C15.7814 1.89776 17.6988 2.85384 19.188 4.32161C18.1817 5.27282 17.1886 6.23791 16.209 7.21661C14.333 5.62661 12.239 5.25961 9.927 6.11561C8.231 6.89561 7.05 8.15961 6.384 9.90761C5.29566 9.09736 4.2215 8.26823 3.162 7.42061C3.08837 7.38186 3.00427 7.36766 2.922 7.38011C4.605 4.13511 7.235 2.20511 10.812 1.59011" fill="#F44336"/>
    <path opacity="0.997" fill-rule="evenodd" clip-rule="evenodd" d="M2.91901 7.38027C3.00401 7.36727 3.08451 7.38077 3.16051 7.42077C4.22001 8.26839 5.29417 9.09752 6.38251 9.90777C6.21125 10.5889 6.10329 11.2843 6.06001 11.9853C6.09701 12.6633 6.20451 13.3288 6.38251 13.9818L3.00001 16.6743C1.52701 13.5963 1.50001 10.4983 2.91901 7.38027Z" fill="#FFC107"/>
    <path opacity="0.999" fill-rule="evenodd" clip-rule="evenodd" d="M19.0275 19.9351C17.9743 19.0063 16.8717 18.135 15.7245 17.3251C16.8745 16.5131 17.5725 15.3991 17.8185 13.9831H12.183V10.0696C15.433 10.0426 18.6815 10.0701 21.9285 10.1521C22.5445 13.4971 21.833 16.5131 19.794 19.2001C19.5516 19.4578 19.2947 19.7031 19.0275 19.9351Z" fill="#448AFF"/>
    <path opacity="0.993" fill-rule="evenodd" clip-rule="evenodd" d="M6.3825 13.9829C7.6125 17.0399 9.8675 18.4669 13.1475 18.2639C14.0682 18.1573 14.951 17.8357 15.7245 17.3249C16.8725 18.1369 17.9735 19.0069 19.0275 19.9349C17.3575 21.4356 15.2282 22.326 12.987 22.4609C12.4778 22.5016 11.9662 22.5016 11.457 22.4609C7.639 22.0109 4.82 20.0819 3 16.6739L6.3825 13.9829Z" fill="#43A047"/>
</svg>
