<svg width="17" height="21" viewBox="0 0 17 21" fill="none" xmlns="http://www.w3.org/2000/svg">
    <path d="M5.69229 1.49996V0H11.3076V1.49996H5.69229ZM7.74998 12.5577H9.24994V6.9423H7.74998V12.5577ZM8.49996 20.2499C7.33074 20.2499 6.23074 20.0269 5.19998 19.5807C4.16921 19.1346 3.26793 18.5256 2.49614 17.7538C1.72435 16.982 1.11538 16.0807 0.669228 15.05C0.223076 14.0192 0 12.9192 0 11.75C0 10.5808 0.223076 9.48076 0.669228 8.45C1.11538 7.41923 1.72435 6.51795 2.49614 5.74616C3.26793 4.97437 4.16921 4.3654 5.19998 3.91925C6.23074 3.47309 7.33074 3.25002 8.49996 3.25002C9.50124 3.25002 10.4657 3.41989 11.3932 3.75963C12.3208 4.09938 13.182 4.58592 13.9769 5.21925L15.223 3.97311L16.2768 5.02693L15.0307 6.27307C15.664 7.06794 16.1506 7.92916 16.4903 8.85672C16.8301 9.78428 16.9999 10.7487 16.9999 11.75C16.9999 12.9192 16.7769 14.0192 16.3307 15.05C15.8845 16.0807 15.2756 16.982 14.5038 17.7538C13.732 18.5256 12.8307 19.1346 11.7999 19.5807C10.7692 20.0269 9.66919 20.2499 8.49996 20.2499ZM8.49996 18.75C10.4333 18.75 12.0833 18.0666 13.45 16.7C14.8166 15.3333 15.5 13.6833 15.5 11.75C15.5 9.81665 14.8166 8.16665 13.45 6.79998C12.0833 5.43331 10.4333 4.74998 8.49996 4.74998C6.56663 4.74998 4.91663 5.43331 3.54996 6.79998C2.1833 8.16665 1.49996 9.81665 1.49996 11.75C1.49996 13.6833 2.1833 15.3333 3.54996 16.7C4.91663 18.0666 6.56663 18.75 8.49996 18.75Z" fill="white"/>
</svg>
