<svg width="14" height="14" viewBox="0 0 14 14" fill="none" xmlns="http://www.w3.org/2000/svg">
    <g clip-path="url(#clip0_222_12439)">
        <path d="M13.6199 0.15323C13.8961 0.344636 14.041 0.675495 13.9891 1.00635L12.2391 12.3814C12.1981 12.6466 12.0367 12.879 11.8016 13.0103C11.5664 13.1415 11.2848 13.1579 11.0359 13.054L7.76564 11.695L5.89259 13.7212C5.64923 13.9864 5.26642 14.0739 4.93009 13.9427C4.59376 13.8114 4.37501 13.486 4.37501 13.1251V10.8392C4.37501 10.7298 4.41603 10.6259 4.48985 10.5466L9.07267 5.54542C9.23126 5.37315 9.22579 5.10792 9.06173 4.94385C8.89767 4.77979 8.63243 4.76886 8.46017 4.92471L2.89845 9.86573L0.483995 8.65714C0.194151 8.51221 0.00821327 8.22237 1.01419e-05 7.89971C-0.00819298 7.57706 0.161338 7.27628 0.440245 7.11495L12.6902 0.114948C12.9828 -0.0518486 13.3438 -0.0354423 13.6199 0.15323Z" fill="white"/>
    </g>
    <defs>
        <clipPath id="clip0_222_12439">
            <path d="M0 0H14V14H0V0Z" fill="white"/>
        </clipPath>
    </defs>
</svg>
